<?xml version="1.0" encoding="UTF-8" standalone="no"?>
<svg
   xmlns:dc="http://purl.org/dc/elements/1.1/"
   xmlns:cc="http://creativecommons.org/ns#"
   xmlns:rdf="http://www.w3.org/1999/02/22-rdf-syntax-ns#"
   xmlns:svg="http://www.w3.org/2000/svg"
   xmlns="http://www.w3.org/2000/svg"
   xmlns:sodipodi="http://sodipodi.sourceforge.net/DTD/sodipodi-0.dtd"
   xmlns:inkscape="http://www.inkscape.org/namespaces/inkscape"
   width="850.62134mm"
   height="985.66113mm"
   viewBox="0 0 850.62134 985.66113"
   version="1.1"
   id="svg8"
   inkscape:version="1.0.1 (3bc2e813f5, 2020-09-07)"
   sodipodi:docname="language.svg">
  <defs
     id="defs2" />
  <sodipodi:namedview
     id="base"
     pagecolor="#ffffff"
     bordercolor="#666666"
     borderopacity="1.0"
     inkscape:pageopacity="0.0"
     inkscape:pageshadow="2"
     inkscape:zoom="0.125"
     inkscape:cx="1361.7591"
     inkscape:cy="1919.4925"
     inkscape:document-units="mm"
     inkscape:current-layer="g34"
     inkscape:document-rotation="0"
     showgrid="false"
     showguides="false"
     inkscape:window-width="1366"
     inkscape:window-height="705"
     inkscape:window-x="-8"
     inkscape:window-y="-8"
     inkscape:window-maximized="1" />
  <metadata
     id="metadata5">
    <rdf:RDF>
      <cc:Work
         rdf:about="">
        <dc:format>image/svg+xml</dc:format>
        <dc:type
           rdf:resource="http://purl.org/dc/dcmitype/StillImage" />
        <dc:title></dc:title>
      </cc:Work>
    </rdf:RDF>
  </metadata>
  <g
     inkscape:label="Layer 1"
     inkscape:groupmode="layer"
     id="layer1"
     transform="translate(254.46543,298.55081)">
    <g
       style="fill-rule:evenodd"
       id="g72"
       transform="matrix(0.35277779,0,0,0.35277779,-460.31127,522.5783)">
      <g
         id="g34">
        <path
           style="fill:#ffffff;stroke:none"
           d="m 1788.07,-1968.45 -932.74,-329.2 v 638.5039 z"
           id="path10"
           sodipodi:nodetypes="ccccc" />
        <path
           style="fill:#ffffff;stroke:none"
           d="m 2290.71,113.1 163.3,268.66 86.11,-249.57 z"
           id="path16" />
        <g
           id="g22"
           style="fill:#ffffff">
          <path
             style="fill:#ffffff;stroke:none"
             d="m 1005.24,-1392.86 c -6.12,-6.01 7.97,49.11 27.58,68.94 34.77,35.08 61.93,39.6 76.39,40.18 32,1.28 71.49,-7.97 94.94,-17.8 22.69,-9.68 62.45,-29.98 77.5,-59.59 3.19,-6.33 11.9,-16.96 6.43,-43.22 -4.15,-20.2 -17.01,-27.27 -32.69,-26.15 -15.68,1.06 -63.15,13.72 -86.11,20.78 -22.97,6.97 -70.28,21.37 -90.9,25.84 -20.57,4.46 -65.92,-2.07 -73.14,-8.98 z"
             id="path18" />
          <path
             style="fill:#ffffff;stroke:none"
             d="m 1586.6,-733.94 c -9.08,-3.3 -196.94,-81.12 -223.57,-93.87 -21.79,-10.48 -75.22,-33.07 -100.36,-43.33 70.81,-109.18 115.51,-191.57 121.46,-204.12 11.01,-22.96 85.96,-169.62 87.71,-178.65 1.7,-9.15 3.83,-42.95 2.18,-50.98 -1.65,-8.19 -29.13,7.55 -66.44,20.2 -37.37,12.6 -108.39,58.79 -135.82,64.58 -27.53,5.74 -115.51,39.07 -160.53,54.01 -45.02,14.94 -130.18,40.93 -165.21,50.39 -35.08,9.46 -65.7,10.21 -85.32,16.16 0,0 2.61,27.48 7.82,35.72 5.15,8.24 23.71,28.44 45.29,34.08 21.58,5.68 57.3,3.4 73.57,-0.32 16.26,-3.78 44.43,-17.54 48.21,-23.55 3.82,-6.11 -1.97,-24.93 4.46,-30.62 6.49,-5.63 92.23,-25.67 124.6,-35.45 32.37,-9.95 156.28,-52.63 173.08,-50.45 -5.32,17.65 -104.99,215.07 -137.09,273.97 -32.11,58.89 -218.63,317.98 -258.34,363.64 -30.14,34.71 -103.18,123.53 -128.48,143.57 6.38,1.76 51.61,-2.12 59.85,-7.22 51.35,-31.63 136.88,-138.1 164.42,-170.53 81.86,-96 153.78,-196.84 210.81,-283.38 h 0.06 c 11.11,4.63 100.94,77.82 124.38,94.04 23.44,16.21 115.94,67.82 135.98,76.38 20.04,8.67 97.06,44.18 100.3,32.16 3.24,-12.12 -13.93,-82.98 -23.02,-86.43 z"
             id="path20" />
        </g>
        <path
           style="fill:#ffffff;stroke:none"
           d="m 1152.5,244.39 c 18,11 35,20 54,29 38,19 81,39 122,54 56,21 112,38 168,51 31,7 65,13 98,18 3,0 92,11 110,11 h 90 c 35,-3 68,-5 103,-10 28,-4 59,-9 89,-16 22,-5 45,-10 67,-17 21,-6 45,-14 68,-22 15,-5 31,-12 47,-18 13,-6 29,-13 44,-19 18,-8 39,-19 59,-29 16,-8 34,-18 51,-28 13,-7 43,-30 59,-30 18,0 30,16 30,30 0,29 -39,38 -57,51 -19,13 -42,23 -62,34 -40,21 -81,39 -120,54 -51,19 -107,37 -157,49 -19,4 -38,9 -57,12 -10,2 -114,18 -143,18 h -132 c -35,-3 -72,-7 -107,-12 -31,-5 -64,-11 -95,-18 -24,-5 -50,-12 -73,-19 -40,-11 -79,-25 -117,-40 -69,-26 -141,-60 -209,-105 -12,-8 -13,-16 -13,-25 0,-15 11,-29 29,-29 16,0 48,23 54,26 z"
           id="path24" />
        <path
           style="fill:#ffffff;stroke:none"
           d="M 1734.5,-318.61 644.5,44.3898 V -1563.61 l 1090,-363 z m 61,-1655 v 1680 c -1,5 -3,10 -7,15 -2,3 -6,7 -9,8 -25,10 -1151,388 -1166,388 -12,0 -23,-8 -29,-21.0002 0,-1 -1,-2 -1,-4 V -1588.61 c 2,-5 3,-12 7,-16 8,-11 22,-13 31,-16 17,-6 1126,-378 1142,-378 10,0 32,7 32,25 z"
           id="path26" />
        <path
           style="fill:#ffffff;stroke:none"
           d="m 2703.5,-1644.1301 -907,-303.4799 v 0 l 907,-308 z m 61,-651.4799 -4.2426,1403.57448 c -1,23 -12.7574,-560.96968 -27.7574,-560.96968 -13,0 -107,-116.8528 -123,-121.8528 -126,-39 -253,36.5513 -378,-2.4487 -28,-9 -57,-9.5147 -84,-18.5147 -24,-7 -50,-19.2427 -74,-27.2427 -107,-33 -216,-44.7868 -323,-80.7868 -4,-1 -14,-259.669 -14,-17.7591 v -255 c 2,-5 4,-11 9,-15 8,-9 351,-123 486,-168 36,-13 487,-168 501,-168 18,0 32.0574,13.0001 32,32 z"
           id="path28"
           sodipodi:nodetypes="cccccscscccccccccss" />
        <path
           id="path30"
           style="fill:#ffffff;stroke:none;stroke-width:1.33333"
           d="M 1606.0938 497.59961 L 1599.334 2739.334 L 3214.9473 3254.2793 L 3214.9473 1009.666 L 1606.0938 497.59961 z M 2305.3066 1137.5859 L 2513.4531 1200.6406 L 2892.666 2567.334 L 2678.8672 2502.4668 L 2602.0527 2221.8926 L 2160.2129 2087.9727 L 2065.1992 2316.5332 L 1851.334 2251.6543 L 2305.3066 1137.5859 z M 2400.4668 1499.4004 L 2241.8926 1882.6797 L 2533.4258 1971.0527 L 2400.4668 1499.4004 z "
           transform="matrix(0.74999997,0,0,0.74999997,583.5,-2327.61)" />
      </g>
    </g>
  </g>
</svg>
