<?xml version="1.0" encoding="UTF-8" standalone="no"?>
<!DOCTYPE svg PUBLIC "-//W3C//DTD SVG 1.1//EN" "http://www.w3.org/Graphics/SVG/1.1/DTD/svg11.dtd">
<svg version="1.1" xmlns="http://www.w3.org/2000/svg" xmlns:xlink="http://www.w3.org/1999/xlink" preserveAspectRatio="xMidYMid meet" viewBox="0 0 640 640" width="640" height="640"><defs><path d="M88.77 199.87L88.77 305.29L129.73 305.29C131.22 304.96 132.16 304.75 132.53 304.67C138.68 303.3 144.12 299.72 147.82 294.62C148.11 294.22 148.83 293.23 149.98 291.64C150.77 288.34 151.27 286.27 151.47 285.45C153.12 278.57 153.23 271.41 151.78 264.48C151.04 260.99 152.43 267.6 152.04 265.75C149.72 254.71 140.25 246.63 128.98 246.08C128.32 246.05 126.68 245.97 124.04 245.84C116.62 245.84 111.97 245.84 110.12 245.84C110.12 245.84 103.79 245.84 103.79 245.84C102.28 245.84 104.42 245.84 103.79 245.84C98.98 245.84 94.4 247.92 91.22 251.53C90.89 251.91 90.08 252.84 88.77 254.33L88.77 199.87L153.98 199.87C158.49 200.61 161.3 201.07 162.43 201.25C190.86 205.89 214.03 226.6 221.8 254.35C222.28 256.07 219.4 245.77 221.98 255.01C223.46 260.28 224.21 265.74 224.21 271.22C224.21 275.71 224.21 281.57 224.21 286.23C224.21 291.16 223.31 296.05 221.56 300.66C218.79 307.96 220.6 303.21 219.69 305.59C212.16 325.41 195.59 340.43 175.11 345.96C174.03 346.25 171.34 346.98 167.02 348.15C168.04 349.77 168.67 350.79 168.93 351.2C178.37 366.29 191.38 378.83 206.82 387.71C206.94 387.77 207.23 387.94 207.71 388.22L229.2 388.22L336.24 251.7L335.75 340.76L293.31 393.89L335.47 393.89L336.24 251.7L376.87 199.87L513.38 199.87L513.38 230.51C502.56 233.12 495.79 234.75 493.09 235.4C489.63 236.23 486.85 238.81 485.76 242.2C485.6 242.69 485.22 243.9 484.59 245.84L530.65 388.22L572.11 250.51C572.41 248.61 572.6 247.43 572.68 246.95C573.8 239.95 568.91 233.41 561.88 232.49C559.87 232.23 554.83 231.57 546.78 230.51L546.78 199.87L640 199.87L640 230.51C634.59 231.9 631.21 232.77 629.86 233.11C620.9 235.41 613.44 241.59 609.53 249.97C609.14 250.79 608.19 252.83 606.65 256.11L540.25 454.97L495.13 454.97L427.19 253.39C426.24 251.06 425.65 249.61 425.42 249.03C421.57 239.56 412.65 233.13 402.45 232.46C401.5 232.4 399.13 232.24 395.33 231.99L395.33 388.22L420.66 388.22L420.66 454.97L395.33 454.97L395.33 524L335.47 524L335.47 454.97L174.66 454.97L105.96 351.88L88.68 351.88L88.68 406.34C89.14 408.75 89.43 410.25 89.55 410.85C90.07 413.57 92.01 415.79 94.63 416.66C95.17 416.84 96.51 417.29 98.66 418.01L119.77 418.01L119.77 454.97L0 454.97L0 418.01L19.98 418.01C19.98 418.01 19.98 418.01 19.98 418.01C24.6 416.29 28.03 412.34 29.11 407.53C29.17 407.26 29.33 406.58 29.57 405.49L29.57 256.11C29.26 254.83 29.07 254.03 28.99 253.71C27.96 249.42 25.26 245.72 21.49 243.42C21.29 243.3 20.78 242.99 19.98 242.5L0 242.5L0 199.87L88.77 199.87Z" id="azf6mDtPR"></path></defs><g><g><g><use xlink:href="#azf6mDtPR" opacity="1" fill="#ffffff" fill-opacity="1"></use><g><use xlink:href="#azf6mDtPR" opacity="1" fill-opacity="0" stroke="#ffffff" stroke-width="0" stroke-opacity="1"></use></g></g></g></g></svg>