<?xml version="1.0" encoding="UTF-8" standalone="no"?>
<svg
   xmlns:dc="http://purl.org/dc/elements/1.1/"
   xmlns:cc="http://creativecommons.org/ns#"
   xmlns:rdf="http://www.w3.org/1999/02/22-rdf-syntax-ns#"
   xmlns:svg="http://www.w3.org/2000/svg"
   xmlns="http://www.w3.org/2000/svg"
   xmlns:xlink="http://www.w3.org/1999/xlink"
   xmlns:sodipodi="http://sodipodi.sourceforge.net/DTD/sodipodi-0.dtd"
   xmlns:inkscape="http://www.inkscape.org/namespaces/inkscape"
   version="1.1"
   preserveAspectRatio="xMidYMid meet"
   viewBox="0 0 640 324.13"
   width="640"
   height="324.13"
   id="svg46"
   sodipodi:docname="logo.svg"
   inkscape:version="1.0.1 (3bc2e813f5, 2020-09-07)">
  <metadata
     id="metadata50">
    <rdf:RDF>
      <cc:Work
         rdf:about="">
        <dc:format>image/svg+xml</dc:format>
        <dc:type
           rdf:resource="http://purl.org/dc/dcmitype/StillImage" />
      </cc:Work>
    </rdf:RDF>
  </metadata>
  <sodipodi:namedview
     pagecolor="#ffffff"
     bordercolor="#666666"
     borderopacity="1"
     objecttolerance="10"
     gridtolerance="10"
     guidetolerance="10"
     inkscape:pageopacity="0"
     inkscape:pageshadow="2"
     inkscape:window-width="1366"
     inkscape:window-height="705"
     id="namedview48"
     showgrid="false"
     inkscape:zoom="0.840625"
     inkscape:cx="320"
     inkscape:cy="120.13"
     inkscape:window-x="-8"
     inkscape:window-y="-8"
     inkscape:window-maximized="1"
     inkscape:current-layer="g42" />
  <defs
     id="defs32">
    <path
       d="m 88.77,199.87 v 105.42 h 40.96 c 1.49,-0.33 2.43,-0.54 2.8,-0.62 6.15,-1.37 11.59,-4.95 15.29,-10.05 0.29,-0.4 1.01,-1.39 2.16,-2.98 0.79,-3.3 1.29,-5.37 1.49,-6.19 1.65,-6.88 1.76,-14.04 0.31,-20.97 -0.74,-3.49 0.65,3.12 0.26,1.27 -2.32,-11.04 -11.79,-19.12 -23.06,-19.67 -0.66,-0.03 -2.3,-0.11 -4.94,-0.24 -7.42,0 -12.07,0 -13.92,0 0,0 -6.33,0 -6.33,0 -1.51,0 0.63,0 0,0 -4.81,0 -9.39,2.08 -12.57,5.69 -0.33,0.38 -1.14,1.31 -2.45,2.8 v -54.46 h 65.21 c 4.51,0.74 7.32,1.2 8.45,1.38 28.43,4.64 51.6,25.35 59.37,53.1 0.48,1.72 -2.4,-8.58 0.18,0.66 1.48,5.27 2.23,10.73 2.23,16.21 0,4.49 0,10.35 0,15.01 0,4.93 -0.9,9.82 -2.65,14.43 -2.77,7.3 -0.96,2.55 -1.87,4.93 -7.53,19.82 -24.1,34.84 -44.58,40.37 -1.08,0.29 -3.77,1.02 -8.09,2.19 1.02,1.62 1.65,2.64 1.91,3.05 9.44,15.09 22.45,27.63 37.89,36.51 0.12,0.06 0.41,0.23 0.89,0.51 h 21.49 l 107.04,-136.52 -0.49,89.06 -42.44,53.13 h 42.16 l 0.77,-142.19 40.63,-51.83 h 136.51 v 30.64 c -10.82,2.61 -17.59,4.24 -20.29,4.89 -3.46,0.83 -6.24,3.41 -7.33,6.8 -0.16,0.49 -0.54,1.7 -1.17,3.64 l 46.06,142.38 41.46,-137.71 c 0.3,-1.9 0.49,-3.08 0.57,-3.56 1.12,-7 -3.77,-13.54 -10.8,-14.46 -2.01,-0.26 -7.05,-0.92 -15.1,-1.98 V 199.87 H 640 v 30.64 c -5.41,1.39 -8.79,2.26 -10.14,2.6 -8.96,2.3 -16.42,8.48 -20.33,16.86 -0.39,0.82 -1.34,2.86 -2.88,6.14 l -66.4,198.86 H 495.13 L 427.19,253.39 c -0.95,-2.33 -1.54,-3.78 -1.77,-4.36 -3.85,-9.47 -12.77,-15.9 -22.97,-16.57 -0.95,-0.06 -3.32,-0.22 -7.12,-0.47 v 156.23 h 25.33 v 66.75 H 395.33 V 524 H 335.47 V 454.97 H 174.66 L 105.96,351.88 H 88.68 v 54.46 c 0.46,2.41 0.75,3.91 0.87,4.51 0.52,2.72 2.46,4.94 5.08,5.81 0.54,0.18 1.88,0.63 4.03,1.35 h 21.11 v 36.96 H 0 v -36.96 h 19.98 c 0,0 0,0 0,0 4.62,-1.72 8.05,-5.67 9.13,-10.48 0.06,-0.27 0.22,-0.95 0.46,-2.04 V 256.11 c -0.31,-1.28 -0.5,-2.08 -0.58,-2.4 -1.03,-4.29 -3.73,-7.99 -7.5,-10.29 -0.2,-0.12 -0.71,-0.43 -1.51,-0.92 H 0 v -42.63 z"
       id="azf6mDtPR" />
  </defs>
  <g
     id="g44"
     transform="translate(5e-7,-199.87)">
    <g
       id="g42">
      <g
         id="g40">
        <use
           xlink:href="#azf6mDtPR"
           opacity="1"
           fill="#ffffff"
           fill-opacity="1"
           id="use34"
           x="0"
           y="0"
           width="100%"
           height="100%" />
        <g
           id="g38">
          <use
             xlink:href="#azf6mDtPR"
             opacity="1"
             fill-opacity="0"
             stroke="#ffffff"
             stroke-width="0"
             stroke-opacity="1"
             id="use36"
             x="0"
             y="0"
             width="100%"
             height="100%" />
        </g>
      </g>
    </g>
  </g>
</svg>
