<?xml version="1.0" encoding="UTF-8" standalone="no"?>
<!DOCTYPE svg PUBLIC "-//W3C//DTD SVG 1.1//EN" "http://www.w3.org/Graphics/SVG/1.1/DTD/svg11.dtd">
<svg version="1.1" xmlns="http://www.w3.org/2000/svg" xmlns:xlink="http://www.w3.org/1999/xlink" preserveAspectRatio="xMidYMid meet" viewBox="0 0 640 640" width="640" height="640"><defs><path d="M88.77 184.08L88.77 288.1L129.73 288.1C131.22 287.77 132.15 287.56 132.52 287.48C138.68 286.13 144.14 282.58 147.87 277.49C148.15 277.11 148.85 276.15 149.98 274.62C150.76 271.44 151.24 269.44 151.44 268.65C153.11 261.78 153.22 254.61 151.75 247.7C151.02 244.27 152.47 251.09 152.09 249.31C149.74 238.28 140.25 230.21 128.98 229.67C128.32 229.64 126.68 229.56 124.04 229.43C116.62 229.43 111.97 229.43 110.12 229.43C110.12 229.43 103.79 229.43 103.79 229.43C102.28 229.43 104.42 229.43 103.79 229.43C98.97 229.43 94.38 231.49 91.18 235.09C90.86 235.46 90.06 236.36 88.77 237.81L88.77 184.08L153.98 184.08C158.48 184.8 161.29 185.25 162.41 185.43C190.86 190.01 214.09 210.66 221.96 238.39C222.41 239.97 219.38 229.29 221.96 238.38C223.45 243.65 224.21 249.1 224.21 254.58C224.21 258.99 224.21 264.61 224.21 269.19C224.21 274.12 223.3 279.01 221.53 283.61C218.77 290.79 220.71 285.75 219.83 288.02C212.21 307.82 195.58 322.77 175.08 328.23C174.01 328.52 171.32 329.24 167.02 330.38C167.96 331.87 168.55 332.8 168.79 333.17C178.32 348.21 191.41 360.67 206.9 369.46C207.01 369.52 207.27 369.68 207.71 369.92L229.2 369.92L336.24 235.21L335.47 323.1L293.31 375.52L335.47 375.52L336.24 235.21L376.87 184.08L513.38 184.08L513.38 214.31C502.56 216.88 495.8 218.49 493.09 219.13C489.63 219.95 486.84 222.52 485.74 225.91C485.59 226.38 485.2 227.55 484.59 229.43L530.65 369.92L572.11 234.04C572.4 232.26 572.58 231.14 572.65 230.7C573.78 223.71 568.9 217.17 561.88 216.26C559.87 216 554.83 215.35 546.78 214.31L546.78 184.08L640 184.08L640 214.31C634.6 215.68 631.22 216.53 629.87 216.87C620.9 219.14 613.42 225.29 609.46 233.65C609.09 234.44 608.15 236.41 606.65 239.57L540.25 435.79L495.13 435.79L427.19 236.88C426.28 234.68 425.72 233.31 425.49 232.76C421.59 223.3 412.65 216.89 402.45 216.23C401.5 216.17 399.13 216.02 395.33 215.77L395.33 369.92L420.66 369.92L420.66 435.79L395.33 435.79L395.33 503.9L335.47 503.9L335.47 435.79L174.66 435.79L105.96 334.07L88.68 334.07L88.68 387.81C89.14 390.15 89.42 391.61 89.54 392.2C90.06 394.91 92.01 397.13 94.63 397.99C95.17 398.17 96.51 398.61 98.66 399.32L119.77 399.32L119.77 435.79L0 435.79L0 399.32L19.98 399.32C19.98 399.32 19.98 399.32 19.98 399.32C24.59 397.62 28.04 393.69 29.13 388.89C29.19 388.64 29.34 387.99 29.57 386.96L29.57 239.57C29.27 238.35 29.09 237.59 29.01 237.28C27.97 233 25.25 229.31 21.47 227.03C21.27 226.91 20.77 226.61 19.98 226.13L0 226.13L0 184.08L88.77 184.08Z" id="bvebNf14G"></path></defs><g><g><g><use xlink:href="#bvebNf14G" opacity="1" fill="#ffffff" fill-opacity="1"></use><g><use xlink:href="#bvebNf14G" opacity="1" fill-opacity="0" stroke="#ffffff" stroke-width="1" stroke-opacity="1"></use></g></g></g></g></svg>