<?xml version="1.0" encoding="UTF-8" standalone="no"?>
<!DOCTYPE svg PUBLIC "-//W3C//DTD SVG 1.1//EN" "http://www.w3.org/Graphics/SVG/1.1/DTD/svg11.dtd">
<svg version="1.1" xmlns="http://www.w3.org/2000/svg" xmlns:xlink="http://www.w3.org/1999/xlink" preserveAspectRatio="xMidYMid meet" viewBox="0 0 640 640" width="640" height="640"><defs><path d="M273.84 0.84L284.05 1.88L294.14 3.31L304.09 5.14L313.9 7.36L323.57 9.94L333.08 12.9L342.42 16.22L351.6 19.89L360.59 23.9L369.39 28.25L378 32.92L386.4 37.92L394.59 43.22L402.55 48.83L410.29 54.73L417.79 60.92L425.04 67.39L432.04 74.13L438.78 81.13L445.25 88.38L451.44 95.88L457.34 103.62L462.95 111.58L468.25 119.77L473.25 128.17L477.92 136.78L482.27 145.58L486.28 154.57L489.95 163.75L493.27 173.09L496.22 182.6L498.81 192.27L501.03 202.08L502.86 212.03L504.29 222.12L505.33 232.33L505.96 242.65L506.17 253.08L505.96 263.52L505.33 273.84L504.29 284.05L502.86 294.14L501.03 304.09L498.81 313.9L496.22 323.57L493.27 333.08L489.95 342.42L486.28 351.6L482.27 360.59L477.92 369.39L473.25 378L468.25 386.4L459.42 403.64L621.49 565.45C626.11 570.3 629 573.33 630.16 574.54C636.48 581.16 640 589.96 640 599.11C640 602.58 640 601.56 640 605.73C640 612.61 637.36 619.23 632.62 624.21C629.33 627.68 629.17 627.85 626.46 630.7C619.89 637.63 610.76 641.55 601.21 641.55C598.3 641.55 604.2 641.55 601.21 641.55C591.89 641.55 582.94 637.92 576.25 631.44C575.18 630.41 572.53 627.84 568.27 623.72L401 457.34L386.4 468.25L378 473.25L369.39 477.92L360.59 482.27L351.6 486.28L342.42 489.95L333.08 493.27L323.57 496.22L313.9 498.81L304.09 501.03L294.14 502.86L284.05 504.29L273.84 505.33L263.52 505.96L253.08 506.17L242.65 505.96L232.33 505.33L222.12 504.29L212.03 502.86L202.08 501.03L192.27 498.81L182.6 496.22L173.09 493.27L163.75 489.95L154.57 486.28L145.58 482.27L136.78 477.92L128.17 473.25L119.77 468.25L111.58 462.95L103.62 457.34L95.88 451.44L88.38 445.25L81.13 438.78L74.13 432.04L67.39 425.04L60.92 417.79L54.73 410.29L48.83 402.55L43.22 394.59L37.92 386.4L32.92 378L28.25 369.39L23.9 360.59L19.89 351.6L16.22 342.42L12.9 333.08L9.94 323.57L7.36 313.9L5.14 304.09L3.31 294.14L1.88 284.05L0.84 273.84L0.21 263.52L0 253.08L0.21 242.65L0.84 232.33L1.88 222.12L3.31 212.03L5.14 202.08L7.36 192.27L9.94 182.6L12.9 173.09L16.22 163.75L19.89 154.57L23.9 145.58L28.25 136.78L32.92 128.17L37.92 119.77L43.22 111.58L48.83 103.62L54.73 95.88L60.92 88.38L67.39 81.13L74.13 74.13L81.13 67.39L88.38 60.92L95.88 54.73L103.62 48.83L111.58 43.22L119.77 37.92L128.17 32.92L136.78 28.25L145.58 23.9L154.57 19.89L163.75 16.22L173.09 12.9L182.6 9.94L192.27 7.36L202.08 5.14L212.03 3.31L222.12 1.88L232.33 0.84L242.65 0.21L253.08 0L263.52 0.21L273.84 0.84ZM240.28 97.44L233.98 98.08L227.75 98.97L221.61 100.1L215.56 101.46L209.59 103.06L203.73 104.89L197.96 106.93L192.3 109.2L186.75 111.67L181.32 114.36L176.01 117.24L170.83 120.32L165.77 123.6L160.86 127.06L156.09 130.7L151.46 134.52L146.98 138.51L142.66 142.66L138.51 146.98L134.52 151.46L130.7 156.09L127.06 160.86L123.6 165.77L120.32 170.83L117.24 176.01L114.36 181.32L111.67 186.75L109.2 192.3L106.93 197.96L104.89 203.73L103.06 209.59L101.46 215.56L100.1 221.61L98.97 227.75L98.08 233.98L97.44 240.28L97.06 246.65L96.93 253.08L97.06 259.52L97.44 265.89L98.08 272.19L98.97 278.41L100.1 284.56L101.46 290.61L103.06 296.58L104.89 302.44L106.93 308.21L109.2 313.87L111.67 319.42L114.36 324.85L117.24 330.16L120.32 335.34L123.6 340.39L127.06 345.31L130.7 350.08L134.52 354.71L138.51 359.19L142.66 363.51L146.98 367.66L151.46 371.65L156.09 375.47L160.86 379.11L165.77 382.57L170.83 385.85L176.01 388.93L181.32 391.81L186.75 394.5L192.3 396.97L197.96 399.24L203.73 401.28L209.59 403.11L215.56 404.7L221.61 406.07L227.75 407.2L233.98 408.09L240.28 408.73L246.65 409.11L253.08 409.24L259.52 409.11L265.89 408.73L272.19 408.09L278.41 407.2L284.56 406.07L290.61 404.7L296.58 403.11L302.44 401.28L308.21 399.24L313.87 396.97L319.42 394.5L324.85 391.81L330.16 388.93L335.34 385.85L340.39 382.57L345.31 379.11L350.08 375.47L354.71 371.65L359.19 367.66L363.51 363.51L367.66 359.19L371.65 354.71L375.47 350.08L379.11 345.31L382.57 340.39L385.85 335.34L388.93 330.16L391.81 324.85L394.5 319.42L396.97 313.87L399.24 308.21L401.28 302.44L403.11 296.58L404.7 290.61L406.07 284.56L407.2 278.41L408.09 272.19L408.73 265.89L409.11 259.52L409.24 253.08L409.11 246.65L408.73 240.28L408.09 233.98L407.2 227.75L406.07 221.61L404.7 215.56L403.11 209.59L401.28 203.73L399.24 197.96L396.97 192.3L394.5 186.75L391.81 181.32L388.93 176.01L385.85 170.83L382.57 165.77L379.11 160.86L375.47 156.09L371.65 151.46L367.66 146.98L363.51 142.66L359.19 138.51L354.71 134.52L350.08 130.7L345.31 127.06L340.39 123.6L335.34 120.32L330.16 117.24L324.85 114.36L319.42 111.67L313.87 109.2L308.21 106.93L302.44 104.89L296.58 103.06L290.61 101.46L284.56 100.1L278.41 98.97L272.19 98.08L265.89 97.44L259.52 97.06L253.08 96.93L246.65 97.06L240.28 97.44Z" id="a9qxvlzpZJ"></path></defs><g><g><g><use xlink:href="#a9qxvlzpZJ" opacity="1" fill="#ffffff" fill-opacity="1"></use></g></g></g></svg>