<?xml version="1.0" encoding="UTF-8" standalone="no"?>
<!DOCTYPE svg PUBLIC "-//W3C//DTD SVG 1.1//EN" "http://www.w3.org/Graphics/SVG/1.1/DTD/svg11.dtd">
<svg version="1.1" xmlns="http://www.w3.org/2000/svg" xmlns:xlink="http://www.w3.org/1999/xlink" preserveAspectRatio="xMidYMid meet" viewBox="0 0 640 640" width="640" height="640"><defs><path d="M209.32 448.38C205.79 447.45 202.56 445.6 199.97 443.01C198.16 441.19 196.53 439.57 194.69 437.72C192.23 435.27 190.69 432.04 190.32 428.59C190.18 427.26 190.33 428.66 190.19 427.34C189.82 423.82 190.41 420.25 191.91 417.04C192.65 415.44 192.28 416.23 192.95 414.8C194.72 411 197.16 407.54 200.16 404.6C243.08 362.37 367.95 239.53 411.03 197.14C413.51 194.71 416.47 192.83 419.73 191.63C420.99 191.16 417.56 192.42 418.26 192.17C423.28 190.32 428.8 190.32 433.82 192.17C434.52 192.42 432.32 191.61 433.89 192.19C436.13 193.02 438.17 194.32 439.86 196.02C441.72 197.87 443.75 199.9 445.36 201.51C447.82 203.97 449.45 207.14 450.03 210.57C450.24 211.82 449.61 208.1 449.73 208.8C450.61 214.02 449.81 219.38 447.44 224.11C446.83 225.33 446.95 225.1 445.91 227.17C444.91 229.16 443.6 230.97 442.02 232.55C399.14 275.43 274.19 400.38 231.64 442.94C229.01 445.57 225.7 447.41 222.08 448.28C220.7 448.6 222.09 448.27 220.71 448.6C217.08 449.47 213.29 449.42 209.68 448.47C208.52 448.17 210.49 448.69 209.32 448.38Z" id="d2ZgPOYc0J"></path><path d="M455.78 357.92C455.78 350.84 458.59 344.05 463.59 339.04C484.07 318.55 534.53 268.02 554.22 248.31C562.01 240.51 568.77 231.75 574.34 222.23C576.08 219.27 573.9 222.99 575.89 219.59C580.62 211.51 584.28 202.85 586.77 193.83C587.87 189.86 586.81 193.7 587.75 190.27C590.73 179.52 591.82 168.32 590.98 157.19C590.67 153.02 591.1 158.69 590.81 154.86C589.88 142.61 586.81 130.62 581.73 119.44C579.71 115 583.26 122.82 581.73 119.44C575.06 104.78 565.66 91.53 554.02 80.4C551.01 77.52 553.82 80.21 549.37 75.95C542.48 69.36 534.4 64.16 525.55 60.62C520.41 58.56 526.25 60.9 523.08 59.63C507.73 53.49 491.36 50.34 474.84 50.34C471.03 50.34 476.1 50.34 470.16 50.34C460.63 50.34 451.17 51.83 442.11 54.76C440.01 55.44 443.8 54.21 440.81 55.18C434.7 57.16 428.85 59.85 423.37 63.2C419.9 65.32 419.5 65.56 416.48 67.41C409.53 71.65 403.11 76.69 397.34 82.43C376.48 103.16 321.1 158.19 299.87 179.29C295.48 183.65 289.54 186.1 283.35 186.1C281.87 186.1 285.29 186.1 283.35 186.1C278.61 186.1 274.04 184.27 270.61 180.98C268.41 178.88 266.92 177.46 264.67 175.3C261.44 172.21 259.61 167.93 259.61 163.46C259.61 161.02 259.61 164.86 259.61 163.46C259.61 155.65 262.67 148.14 268.14 142.56C287.9 122.41 331.91 77.53 349.99 59.1C361.26 47.6 373.69 37.31 387.08 28.38C391.15 25.66 384.47 30.12 388.85 27.2C401.19 18.97 414.61 12.48 428.71 7.92C434.13 6.17 427.74 8.24 432.81 6.6C448.01 1.68 463.95 -0.52 479.91 0.1C486.03 0.34 477.49 0.01 482.91 0.22C501.16 0.93 519.13 4.95 535.94 12.08C540.24 13.91 537.37 12.69 544.08 15.54C552.95 19.3 561.4 23.99 569.28 29.54C574.58 33.27 576.58 34.68 581.37 38.05C590.93 44.78 599.37 52.99 606.35 62.36C609.65 66.78 606.29 62.27 608.9 65.79C618.12 78.16 625.34 91.9 630.3 106.5C632.56 113.18 628.8 102.1 630.3 106.51C637.79 128.59 641.21 151.83 640.4 175.13C640.3 178.15 640.71 166.18 640.48 172.75C640.08 184.35 638.37 195.88 635.39 207.1C634.58 210.15 636.29 203.73 635.39 207.1C632.71 217.22 628.66 226.92 623.37 235.95C620.13 241.48 621.57 239.02 619.13 243.18C611.19 256.72 601.56 269.19 590.47 280.28C570.21 300.54 517.25 353.5 494.77 375.98C491.2 379.55 486.35 381.56 481.29 381.56C479.6 381.56 481.48 381.56 479.55 381.56C475.23 381.56 471.08 379.95 467.89 377.04C465.47 374.82 463.95 373.43 461.72 371.4C457.94 367.94 455.78 363.05 455.78 357.92C455.78 355.71 455.78 359.53 455.78 357.92Z" id="aCMEP8w0j"></path><path d="M184.38 282.08C184.38 289.16 181.57 295.95 176.57 300.96C156.1 321.45 105.63 371.98 85.95 391.69C78.15 399.49 71.39 408.25 65.82 417.77C64.09 420.73 66.26 417.01 64.28 420.41C59.55 428.49 55.89 437.15 53.39 446.17C52.3 450.14 53.36 446.3 52.41 449.73C49.43 460.48 48.34 471.68 49.18 482.81C49.5 486.98 49.07 481.31 49.36 485.14C50.28 497.39 53.36 509.38 58.44 520.56C60.45 525 56.9 517.18 58.44 520.56C65.1 535.22 74.5 548.47 86.14 559.6C89.16 562.48 86.34 559.79 90.8 564.05C97.68 570.64 105.77 575.84 114.61 579.38C119.75 581.44 113.91 579.1 117.09 580.37C132.43 586.51 148.8 589.66 165.33 589.66C169.14 589.66 164.07 589.66 170.01 589.66C179.53 589.66 189 588.17 198.06 585.24C200.15 584.56 196.36 585.79 199.35 584.82C205.46 582.84 211.31 580.15 216.79 576.8C220.26 574.68 220.66 574.44 223.69 572.59C230.63 568.35 237.05 563.31 242.82 557.57C263.69 536.84 319.06 481.81 340.3 460.71C344.69 456.35 350.62 453.9 356.81 453.9C358.29 453.9 354.88 453.9 356.81 453.9C361.56 453.9 366.12 455.73 369.55 459.02C371.75 461.12 373.24 462.54 375.5 464.7C378.73 467.79 380.56 472.07 380.56 476.54C380.56 478.98 380.56 475.14 380.56 476.54C380.56 484.35 377.49 491.86 372.02 497.44C352.26 517.59 308.25 562.47 290.18 580.9C278.91 592.4 266.48 602.69 253.08 611.62C249.01 614.34 255.69 609.88 251.31 612.8C238.97 621.03 225.56 627.52 211.45 632.08C206.04 633.83 212.43 631.76 207.36 633.4C192.16 638.32 176.21 640.52 160.25 639.9C154.13 639.66 162.68 639.99 157.25 639.78C139 639.07 121.04 635.05 104.22 627.92C99.93 626.09 102.8 627.31 96.08 624.46C87.21 620.7 78.77 616.01 70.89 610.46C65.58 606.73 63.59 605.32 58.8 601.95C49.23 595.22 40.8 587.01 33.81 577.64C30.52 573.22 33.88 577.73 31.26 574.21C22.04 561.84 14.82 548.1 9.87 533.5C7.6 526.82 11.36 537.9 9.86 533.49C2.37 511.41 -1.05 488.17 -0.24 464.87C-0.13 461.85 -0.55 473.82 -0.32 467.25C0.09 455.65 1.79 444.12 4.77 432.9C5.58 429.85 3.88 436.27 4.77 432.9C7.46 422.78 11.5 413.08 16.79 404.05C20.03 398.52 18.59 400.98 21.03 396.82C28.97 383.28 38.6 370.81 49.7 359.72C69.95 339.46 122.91 286.5 145.39 264.02C148.97 260.45 153.82 258.44 158.87 258.44C160.56 258.44 158.69 258.44 160.62 258.44C164.93 258.44 169.09 260.05 172.27 262.96C174.69 265.18 176.22 266.57 178.44 268.6C182.22 272.06 184.38 276.95 184.38 282.08C184.38 284.29 184.38 280.47 184.38 282.08Z" id="a3ny9gvYzm"></path></defs><g><g><g><use xlink:href="#d2ZgPOYc0J" opacity="1" fill="#ffffff" fill-opacity="1"></use><g><use xlink:href="#d2ZgPOYc0J" opacity="1" fill-opacity="0" stroke="#ffffff" stroke-width="1" stroke-opacity="1"></use></g></g><g><use xlink:href="#aCMEP8w0j" opacity="1" fill="#ffffff" fill-opacity="1"></use><g><use xlink:href="#aCMEP8w0j" opacity="1" fill-opacity="0" stroke="#ffffff" stroke-width="1" stroke-opacity="1"></use></g></g><g><use xlink:href="#a3ny9gvYzm" opacity="1" fill="#ffffff" fill-opacity="1"></use><g><use xlink:href="#a3ny9gvYzm" opacity="1" fill-opacity="0" stroke="#ffffff" stroke-width="1" stroke-opacity="1"></use></g></g></g></g></svg>